<svg width="20" height="20" viewBox="0 0 20 20" fill="none" xmlns="http://www.w3.org/2000/svg">
<g clip-path="url(#clip0_175_285)">
<path d="M8.45312 1.80078C4.3125 1.98047 1.83203 3.05859 0.730469 5.15234C0.300781 5.96484 0.0390625 7.04687 0.0390625 7.99219V8.32031H2.06641H4.09375L4.11719 8.17187C4.12891 8.09375 4.14844 7.9375 4.16406 7.83203C4.23047 7.28906 4.41797 6.67969 4.62891 6.3125C5.10938 5.46094 5.75391 5.0625 6.99219 4.85547C7.80469 4.71875 12.2461 4.75391 13.1523 4.90234C13.5469 4.96484 14.0742 5.12109 14.3164 5.24609C14.7109 5.44531 15.0625 5.78125 15.3086 6.19141C15.5586 6.60156 15.7812 7.37109 15.8398 8.01562L15.8672 8.32031H17.9297H19.9922L19.9766 7.99609C19.9141 6.87109 19.7266 6.05859 19.3516 5.29687C18.3711 3.32422 16.3164 2.24219 12.8906 1.89453C11.6289 1.76953 9.96875 1.73437 8.45312 1.80078Z" fill="black"/>
<path d="M5.97656 6.98047C5.75781 7.02344 5.74219 7.07031 5.74219 7.71094V8.30078L5.50391 8.57031C4.45313 9.76562 2.11719 12.9336 1.56641 13.9102L1.44141 14.1328L1.45313 15.9883C1.46484 17.793 1.46875 17.8477 1.54688 17.9531C1.58984 18.0117 1.67578 18.0977 1.73438 18.1406L1.83984 18.2227L9.75781 18.2344L17.6758 18.2422L17.8477 18.1562C18.1719 17.9883 18.1641 18.0508 18.1641 15.9336V14.0742L17.8984 13.6484C17.1758 12.4883 15.2539 9.89453 14.2305 8.70703L13.9063 8.32812V7.78125C13.9063 7.48047 13.8906 7.1875 13.8672 7.13281C13.8125 6.98047 13.6016 6.94531 12.832 6.96094C12.2734 6.96875 12.1484 6.98437 12.0586 7.04297L11.9531 7.10937V7.61719V8.125H9.80469H7.65625V7.625C7.65625 6.94141 7.70313 6.97266 6.78125 6.96484C6.39453 6.96484 6.03125 6.96875 5.97656 6.98047ZM7.69141 9.66797C7.90234 9.77734 8.00781 9.94531 8.00781 10.1758C8.00781 10.3437 7.98828 10.4102 7.90625 10.5078C7.69922 10.75 7.44531 10.8047 7.1875 10.6602C7 10.5547 6.90625 10.3906 6.90625 10.168C6.90625 9.77344 7.35156 9.48828 7.69141 9.66797ZM10.0391 9.67969C10.4375 9.87891 10.4531 10.4297 10.0703 10.6641C9.80078 10.8281 9.45703 10.7227 9.30859 10.4297C9.25781 10.3359 9.21875 10.2187 9.21875 10.1758C9.21875 10.1328 9.25781 10.0156 9.30859 9.92187C9.45313 9.63672 9.75391 9.53516 10.0391 9.67969ZM12.457 9.71484C12.6133 9.83203 12.7031 10.0312 12.6836 10.2305C12.6484 10.5469 12.3906 10.7617 12.0742 10.7305C11.5156 10.6719 11.3789 9.9375 11.8789 9.67578C12.043 9.58984 12.3086 9.60547 12.457 9.71484ZM7.71875 11.625C7.92188 11.7227 8.01953 11.9141 8 12.1719C7.98438 12.3398 7.95703 12.4102 7.87109 12.5C7.39844 12.9961 6.63672 12.3945 6.99609 11.8125C7.13672 11.582 7.45313 11.5 7.71875 11.625ZM10.0703 11.6406C10.6797 12.0156 10.1992 12.9297 9.55469 12.6211C9.24219 12.4687 9.13672 12.0937 9.32813 11.8047C9.48047 11.5703 9.82813 11.4922 10.0703 11.6406ZM12.4258 11.6523C12.8008 11.9023 12.7617 12.4453 12.3594 12.6367C11.9727 12.8203 11.5156 12.4844 11.5742 12.0625C11.6289 11.6445 12.0859 11.4258 12.4258 11.6523ZM7.76172 13.5937C8.08984 13.793 8.09375 14.3047 7.76953 14.5312C7.62109 14.6406 7.3125 14.6484 7.16797 14.5547C7.01563 14.4531 6.91406 14.2617 6.91406 14.0703C6.91406 13.7383 7.13281 13.5156 7.46094 13.5156C7.56641 13.5156 7.6875 13.5469 7.76172 13.5937ZM10.0977 13.5937C10.4414 13.8086 10.4258 14.3711 10.0664 14.5547C9.70703 14.7422 9.28125 14.5195 9.23438 14.1172C9.17969 13.6758 9.71094 13.3555 10.0977 13.5937ZM12.4844 13.6367C12.6992 13.832 12.7461 14.0977 12.6133 14.3359C12.332 14.832 11.5625 14.6367 11.5625 14.0625C11.5625 13.918 11.6367 13.7617 11.7656 13.6484C11.8945 13.5312 11.9453 13.5156 12.1797 13.5312C12.3281 13.5391 12.4102 13.5664 12.4844 13.6367Z" fill="black"/>
<path d="M0.0117188 9.03126C0.046875 9.35939 0.09375 9.51954 0.230469 9.73439C0.371094 9.95705 0.644531 10.0977 1.03516 10.1563C1.39844 10.207 2.76563 10.207 3.08594 10.1524C3.75 10.0469 4.04297 9.73439 4.08984 9.07814L4.11328 8.78907H2.05078H-0.0117188L0.0117188 9.03126Z" fill="black"/>
<path d="M15.875 8.84764C15.8399 8.93749 15.9336 9.40624 16.0157 9.5703C16.0938 9.72264 16.3086 9.91014 16.4883 9.98827C16.7344 10.0937 17.1875 10.125 18.1289 10.1055C19.1992 10.0859 19.3711 10.0508 19.6367 9.8242C19.8282 9.66014 19.9492 9.39452 19.9844 9.05077L20.0117 8.78905H17.9532C16.1641 8.78905 15.8946 8.79686 15.875 8.84764Z" fill="black"/>
</g>
<defs>
<clipPath id="clip0_175_285">
<rect width="20" height="20" fill="white"/>
</clipPath>
</defs>
</svg>
