<svg width="71" height="70" viewBox="0 0 71 70" fill="none" xmlns="http://www.w3.org/2000/svg">
<path d="M46 31.5002C46 34.285 44.8938 36.9557 42.9246 38.9248C40.9555 40.8939 38.2848 42.0002 35.5 42.0002C32.7152 42.0002 30.0445 40.8939 28.0754 38.9248C26.1063 36.9557 25 34.285 25 31.5002C25 28.7154 26.1063 26.0447 28.0754 24.0756C30.0445 22.1064 32.7152 21.0002 35.5 21.0002C38.2848 21.0002 40.9555 22.1064 42.9246 24.0756C44.8938 26.0447 46 28.7154 46 31.5002ZM42.5 31.5002C42.5 29.6437 41.7625 27.8632 40.4497 26.5504C39.137 25.2377 37.3565 24.5002 35.5 24.5002C33.6435 24.5002 31.863 25.2377 30.5503 26.5504C29.2375 27.8632 28.5 29.6437 28.5 31.5002C28.5 33.3567 29.2375 35.1372 30.5503 36.4499C31.863 37.7627 33.6435 38.5002 35.5 38.5002C37.3565 38.5002 39.137 37.7627 40.4497 36.4499C41.7625 35.1372 42.5 33.3567 42.5 31.5002ZM52.825 48.8427C57.4202 44.2451 60.0015 38.0109 60.0015 31.5107C60.0015 25.0104 57.4202 18.7762 52.825 14.1787C50.5504 11.9026 47.8496 10.0969 44.8769 8.86502C41.9042 7.6331 38.7179 6.99902 35.5 6.99902C32.2821 6.99902 29.0958 7.6331 26.1231 8.86502C23.1504 10.0969 20.4496 11.9026 18.175 14.1787C13.5798 18.7762 10.9985 25.0104 10.9985 31.5107C10.9985 38.0109 13.5798 44.2451 18.175 48.8427L23.4985 54.0892L30.649 61.0367L31.1145 61.4497C33.827 63.6477 37.7995 63.5077 40.3545 61.0367L48.877 52.7417L52.825 48.8427ZM20.6425 16.6462C22.5933 14.6945 24.9095 13.1463 27.4588 12.09C30.0081 11.0337 32.7405 10.4901 35.5 10.4901C38.2595 10.4901 40.9919 11.0337 43.5412 12.09C46.0905 13.1463 48.4067 14.6945 50.3575 16.6462C54.189 20.4803 56.392 25.6458 56.5068 31.065C56.6215 36.4841 54.6392 41.7383 50.9735 45.7312L50.3575 46.3752L45.734 50.9392L37.929 58.5272L37.6 58.8072C36.9949 59.2632 36.2577 59.5098 35.5 59.5098C34.7423 59.5098 34.0051 59.2632 33.4 58.8072L33.0745 58.5272L22.6445 48.3597L20.6425 46.3752L20.0265 45.7347C16.3608 41.7418 14.3785 36.4876 14.4933 31.0685C14.608 25.6493 16.811 20.4838 20.6425 16.6497V16.6462Z" fill="white"/>
</svg>
