<svg width="60" height="60" viewBox="0 0 60 60" fill="none" xmlns="http://www.w3.org/2000/svg">
<path d="M56.4257 0.269531C55.9686 0.515625 55.7694 0.902344 47.871 16.7227C43.4296 25.6406 39.7499 32.9531 39.7147 32.9883C39.6679 33.0234 38.8007 32.6367 37.7577 32.1328C35.5194 31.0195 34.6874 30.8086 33.3632 31.0312C31.5585 31.3477 30.1874 32.4375 29.2382 34.3359C28.9452 34.9219 28.7108 35.4258 28.7343 35.4492C28.7577 35.4727 32.9882 37.5938 38.1562 40.1719L47.5429 44.8711L48.1522 43.5938C48.6913 42.4805 48.7733 42.2109 48.8319 41.3906C48.914 40.3008 48.7499 39.4922 48.246 38.5078C47.6718 37.3359 46.9101 36.7148 44.7655 35.6367C43.7343 35.1094 42.8905 34.6523 42.8905 34.6289C42.8905 34.5938 46.5351 27.293 50.9765 18.3984C57.3866 5.56641 59.0624 2.13281 59.0624 1.78125C59.0507 0.855469 58.2186 0 57.3046 0C57.0819 0 56.6835 0.117188 56.4257 0.269531Z" fill="black"/>
<path d="M25.7813 39.7148C24.4805 41.039 23.379 41.8007 21.2696 42.832C18.9961 43.9453 16.3711 44.8007 13.4297 45.3632C12.7969 45.4804 12.1407 45.6679 11.9883 45.7617C11.2501 46.2539 11.0157 47.4257 11.5196 48.1757C11.7422 48.5156 12.4805 48.9257 16.3477 50.8828C18.8672 52.1601 21.3399 53.332 21.8555 53.5078C22.5469 53.7304 23.1329 53.8242 24.0938 53.871L25.3829 53.9414L25.3477 54.246C25.3243 54.4101 25.418 54.7851 25.5704 55.0781C25.8399 55.6054 25.8633 55.6171 30.0586 57.7382C32.379 58.9101 34.4532 59.9062 34.6641 59.9531C35.4844 60.1171 35.8594 59.871 37.8282 57.914C39.9727 55.7695 41.8477 53.6601 43.3477 51.6914C44.3907 50.332 45.8204 48.1992 45.8204 48.0234C45.8204 47.9179 27.129 38.5429 26.9883 38.5664C26.9297 38.5781 26.3907 39.0937 25.7813 39.7148Z" fill="black"/>
<path d="M1.85156 46.1836C1.34766 46.4414 0.9375 47.1328 0.9375 47.6953C0.9375 47.8945 1.04297 48.2695 1.17188 48.5156C1.44141 49.043 2.10938 49.4531 2.69531 49.4531C3.58594 49.4531 4.45312 48.5859 4.45312 47.6953C4.45312 47.1094 4.04297 46.4414 3.51562 46.1719C2.94141 45.8789 2.41406 45.8789 1.85156 46.1836Z" fill="black"/>
<path d="M8.88281 49.6992C8.37891 49.957 7.96875 50.6484 7.96875 51.2109C7.96875 52.1016 8.83594 52.9688 9.72656 52.9688C10.6172 52.9688 11.4844 52.1016 11.4844 51.2109C11.4844 50.625 11.0742 49.957 10.5469 49.6875C9.97266 49.3945 9.44531 49.3945 8.88281 49.6992Z" fill="black"/>
<path d="M1.85156 53.2148C1.33594 53.4844 0.9375 54.1641 0.9375 54.7734C0.9375 57.1406 2.76562 59.3555 5.13281 59.8711C5.53125 59.9531 7.19531 60 9.67969 60C13.3828 60 13.6289 59.9883 14.0625 59.7656C14.5898 59.4961 15 58.8281 15 58.2422C15 57.6563 14.5898 56.9883 14.0625 56.7188C13.6289 56.4961 13.3828 56.4844 9.71484 56.4844C5.90625 56.4844 5.82422 56.4844 5.36719 56.2266C4.83984 55.9336 4.45312 55.2891 4.45312 54.7266C4.45312 54.1406 4.04297 53.4727 3.51562 53.2031C2.94141 52.9102 2.41406 52.9102 1.85156 53.2148Z" fill="black"/>
<path d="M19.4297 56.7305C18.9258 56.9883 18.5156 57.6797 18.5156 58.2422C18.5156 59.1328 19.3828 60 20.2734 60C21.1641 60 22.0312 59.1328 22.0312 58.2422C22.0312 57.6563 21.6211 56.9883 21.0938 56.7188C20.5195 56.4258 19.9922 56.4258 19.4297 56.7305Z" fill="black"/>
</svg>
