<svg width="60" height="60" viewBox="0 0 60 60" fill="none" xmlns="http://www.w3.org/2000/svg">
<path d="M10 52.5H34.05C35.4927 52.5008 36.9184 52.189 38.2291 51.5861C39.5398 50.9832 40.7043 50.1035 41.6425 49.0075L54.3975 34.1275C54.6646 33.8165 54.8511 33.4445 54.9406 33.0444C55.03 32.6443 55.0197 32.2283 54.9105 31.8332C54.8014 31.438 54.5967 31.0757 54.3145 30.7783C54.0324 30.4808 53.6814 30.2574 53.2925 30.1275L48.3725 28.4875C47.1834 28.101 45.9173 28.0135 44.6863 28.2329C43.4554 28.4522 42.2974 28.9716 41.315 29.745L33.3525 36.1125L31.81 33.025C30.9836 31.3607 29.7077 29.9611 28.1268 28.9846C26.5459 28.0081 24.7232 27.4938 22.865 27.5H10C7.2425 27.5 5 29.7425 5 32.5V47.5C5 50.2575 7.2425 52.5 10 52.5ZM10 32.5H22.865C24.7725 32.5 26.485 33.5575 27.3375 35.2625L28.455 37.5H17.5V42.5H32.535C32.9196 42.4949 33.2979 42.4008 33.64 42.225L33.6475 42.2225L33.6575 42.2175H33.665L33.67 42.215H33.68L33.6825 42.2125C33.705 42.22 33.69 42.21 33.69 42.21C33.715 42.21 33.695 42.2075 33.695 42.2075H33.6975L33.7025 42.205L33.71 42.2025L33.715 42.2L33.72 42.1975L33.7275 42.195L33.7325 42.1925C33.74 42.1925 33.735 42.19 33.7375 42.19L33.745 42.185L33.75 42.1825L33.755 42.18L33.7625 42.1775L33.7675 42.175H33.77L33.775 42.1725H33.7775L33.7825 42.17L33.7875 42.1675C33.81 42.165 33.795 42.165 33.795 42.165L33.8 42.1625C33.8963 42.1044 33.9883 42.0392 34.075 41.9675L44.44 33.675C45.095 33.155 45.9975 32.9925 46.79 33.2575L48.1825 33.7225L37.85 45.78C37.3747 46.3197 36.7901 46.7522 36.135 47.0487C35.4798 47.3452 34.7691 47.4991 34.05 47.5H10V32.5ZM40 5.00002H39.9575C39.55 5.00502 37.4425 5.09752 35 6.76252C32.6225 5.14252 30.565 5.01252 30.08 5.00252L30.005 5.00002H29.995C27.9925 5.00002 26.1075 5.78252 24.6975 7.19502C23.2825 8.61252 22.5 10.495 22.5 12.5C22.5 14.505 23.2825 16.3875 24.6525 17.76L33.1875 26.725C33.4223 26.9688 33.7039 27.1627 34.0155 27.295C34.327 27.4273 34.6621 27.4954 35.0005 27.4952C35.339 27.495 35.674 27.4264 35.9853 27.2936C36.2967 27.1609 36.578 26.9666 36.8125 26.7225L45.3025 17.8025C46.72 16.3875 47.5 14.505 47.5 12.5C47.5 10.495 46.7175 8.61252 45.305 7.19752C44.6108 6.49889 43.785 5.94492 42.8752 5.56771C41.9654 5.1905 40.9899 4.99755 40.005 5.00002H40ZM42.5 12.5C42.5 13.1675 42.24 13.795 41.7225 14.3125L35 21.375L28.2325 14.2675C27.76 13.795 27.5 13.1675 27.5 12.5C27.5 11.8325 27.76 11.205 28.235 10.73C28.6871 10.2702 29.3027 10.0078 29.9475 10C30.01 10.0025 31.2025 10.08 32.615 11.2125C32.8175 11.375 33.0225 11.56 33.2325 11.7675L35 13.535L36.7675 11.7675C36.9775 11.56 37.1825 11.375 37.385 11.2125C38.7075 10.15 39.825 10.0175 40.015 10.0025C40.3408 10.0025 40.6635 10.0669 40.9643 10.1922C41.2651 10.3175 41.5381 10.5012 41.7675 10.7325C42.24 11.205 42.5 11.8325 42.5 12.5Z" fill="black"/>
</svg>
