<svg width="54" height="38" viewBox="0 0 54 38" fill="none" xmlns="http://www.w3.org/2000/svg">
<path d="M41.1562 13.375L40.6537 13.195L36.3975 5.215C35.5981 3.71534 34.4061 2.46118 32.949 1.58665C31.4918 0.71211 29.8244 0.250091 28.125 0.25H17.4075C15.4394 0.24992 13.5212 0.869224 11.9247 2.02015C10.3282 3.17108 9.13442 4.79525 8.5125 6.6625L6.48375 12.7488C4.78408 13.4651 3.33349 14.667 2.31359 16.2039C1.29369 17.7407 0.749799 19.5443 0.75 21.3888V25.5625C0.75 28.225 2.33625 30.5125 4.6125 31.5438C4.90727 33.2327 5.77179 34.7696 7.06204 35.8986C8.3523 37.0275 9.99041 37.6804 11.7035 37.7483C13.4166 37.8163 15.1013 37.2953 16.4769 36.2721C17.8526 35.2489 18.8361 33.7853 19.2638 32.125H34.7362C35.1639 33.7853 36.1474 35.2489 37.5231 36.2721C38.8987 37.2953 40.5834 37.8163 42.2965 37.7483C44.0096 37.6804 45.6477 37.0275 46.938 35.8986C48.2282 34.7696 49.0927 33.2327 49.3875 31.5438C50.5386 31.0241 51.5153 30.1834 52.2004 29.1225C52.8855 28.0615 53.25 26.8254 53.25 25.5625V24.2913C53.2497 22.356 52.6505 20.4682 51.5346 18.887C50.4187 17.3058 48.8408 16.1087 47.0175 15.46L41.355 13.4462V13.375H41.1562ZM12.0675 7.8475C12.4408 6.72666 13.1575 5.75181 14.116 5.06121C15.0745 4.37061 16.2261 3.99932 17.4075 4H21.375V13.375H10.2262L12.0675 7.8475ZM36.4987 13.375H25.125V4H28.125C29.1448 3.99964 30.1454 4.2765 31.02 4.80096C31.8945 5.32542 32.61 6.07776 33.09 6.9775L36.5025 13.375H36.4987ZM8.25 30.25C8.25 29.2554 8.64509 28.3016 9.34835 27.5984C10.0516 26.8951 11.0054 26.5 12 26.5C12.9946 26.5 13.9484 26.8951 14.6516 27.5984C15.3549 28.3016 15.75 29.2554 15.75 30.25C15.75 31.2446 15.3549 32.1984 14.6516 32.9016C13.9484 33.6049 12.9946 34 12 34C11.0054 34 10.0516 33.6049 9.34835 32.9016C8.64509 32.1984 8.25 31.2446 8.25 30.25ZM42 26.5C42.9946 26.5 43.9484 26.8951 44.6516 27.5984C45.3549 28.3016 45.75 29.2554 45.75 30.25C45.75 31.2446 45.3549 32.1984 44.6516 32.9016C43.9484 33.6049 42.9946 34 42 34C41.0054 34 40.0516 33.6049 39.3484 32.9016C38.6451 32.1984 38.25 31.2446 38.25 30.25C38.25 29.2554 38.6451 28.3016 39.3484 27.5984C40.0516 26.8951 41.0054 26.5 42 26.5Z" fill="black"/>
</svg>
